<svg width="38" height="38" viewBox="0 0 38 38" fill="none" xmlns="http://www.w3.org/2000/svg">
<path d="M19.0639 13.2553C17.5572 13.2553 16.1123 13.8538 15.0469 14.9192C13.9815 15.9846 13.383 17.4295 13.383 18.9362C13.383 20.4428 13.9815 21.8878 15.0469 22.9531C16.1123 24.0185 17.5572 24.617 19.0639 24.617C20.5705 24.617 22.0155 24.0185 23.0808 22.9531C24.1462 21.8878 24.7447 20.4428 24.7447 18.9362C24.7447 17.4295 24.1462 15.9846 23.0808 14.9192C22.0155 13.8538 20.5705 13.2553 19.0639 13.2553ZM19.0639 9.46809C21.5749 9.46809 23.9832 10.4656 25.7588 12.2412C27.5344 14.0168 28.5319 16.4251 28.5319 18.9362C28.5319 21.4473 27.5344 23.8555 25.7588 25.6311C23.9832 27.4067 21.5749 28.4043 19.0639 28.4043C16.5528 28.4043 14.1445 27.4067 12.3689 25.6311C10.5933 23.8555 9.59577 21.4473 9.59577 18.9362C9.59577 16.4251 10.5933 14.0168 12.3689 12.2412C14.1445 10.4656 16.5528 9.46809 19.0639 9.46809ZM31.3724 8.99468C31.3724 9.62245 31.123 10.2245 30.6791 10.6684C30.2352 11.1123 29.6331 11.3617 29.0053 11.3617C28.3776 11.3617 27.7755 11.1123 27.3316 10.6684C26.8877 10.2245 26.6383 9.62245 26.6383 8.99468C26.6383 8.36691 26.8877 7.76485 27.3316 7.32094C27.7755 6.87704 28.3776 6.62766 29.0053 6.62766C29.6331 6.62766 30.2352 6.87704 30.6791 7.32094C31.123 7.76485 31.3724 8.36691 31.3724 8.99468ZM19.0639 3.78723C14.379 3.78723 13.614 3.80049 11.4345 3.89706C9.94988 3.96713 8.95383 4.16596 8.02975 4.52574C7.25643 4.80967 6.5573 5.26475 5.98464 5.85696C5.39195 6.42959 4.93625 7.12868 4.65154 7.90206C4.29175 8.82994 4.09292 9.82409 4.02475 11.3068C3.92628 13.3973 3.91303 14.1283 3.91303 18.9362C3.91303 23.6229 3.92628 24.386 4.02286 26.5656C4.09292 28.0483 4.29175 29.0462 4.64964 29.9684C4.97156 30.7921 5.35028 31.3848 5.97896 32.0135C6.61711 32.6497 7.20981 33.0304 8.02407 33.3447C8.95952 33.7064 9.95556 33.9071 11.4326 33.9753C13.5231 34.0737 14.2541 34.0851 19.062 34.0851C23.7487 34.0851 24.5118 34.0719 26.6913 33.9753C28.1722 33.9052 29.1682 33.7064 30.0942 33.3485C30.8668 33.0632 31.5656 32.6083 32.1393 32.0173C32.7774 31.381 33.158 30.7883 33.4724 29.9722C33.8322 29.0405 34.0329 28.0445 34.1011 26.5637C34.1995 24.475 34.2109 23.7422 34.2109 18.9362C34.2109 14.2514 34.1976 13.4863 34.1011 11.3068C34.031 9.82598 33.8303 8.82615 33.4724 7.90206C33.1869 7.1295 32.7321 6.43069 32.1412 5.85696C31.5688 5.26396 30.8696 4.80821 30.0961 4.52385C29.1682 4.16406 28.1722 3.96523 26.6913 3.89706C24.6027 3.7986 23.8736 3.78723 19.0639 3.78723ZM19.0639 0C24.2088 0 24.8508 0.0189361 26.8712 0.113617C28.886 0.208298 30.2608 0.524532 31.4671 0.994149C32.7168 1.47513 33.7697 2.12653 34.8225 3.17749C35.7854 4.1241 36.5305 5.26916 37.0059 6.53298C37.4736 7.73921 37.7917 9.11398 37.8864 11.1307C37.9754 13.1493 38 13.7912 38 18.9362C38 24.0811 37.9811 24.7231 37.8864 26.7417C37.7917 28.7584 37.4736 30.1312 37.0059 31.3394C36.5318 32.6038 35.7866 33.7492 34.8225 34.6949C33.8757 35.6574 32.7307 36.4024 31.4671 36.8782C30.2608 37.3459 28.886 37.664 26.8712 37.7587C24.8508 37.8477 24.2088 37.8723 19.0639 37.8723C13.9189 37.8723 13.277 37.8534 11.2565 37.7587C9.24166 37.664 7.86879 37.3459 6.66067 36.8782C5.39635 36.4038 4.25109 35.6586 3.30517 34.6949C2.34214 33.7484 1.59706 32.6033 1.12183 31.3394C0.652218 30.1331 0.335984 28.7584 0.241303 26.7417C0.150409 24.7231 0.127686 24.0811 0.127686 18.9362C0.127686 13.7912 0.146622 13.1493 0.241303 11.1307C0.335984 9.11208 0.652218 7.74111 1.12183 6.53298C1.59569 5.26838 2.34095 4.12301 3.30517 3.17749C4.25136 2.21408 5.39654 1.46893 6.66067 0.994149C7.8669 0.524532 9.23977 0.208298 11.2565 0.113617C13.277 0.0246169 13.9189 0 19.0639 0Z" fill="white"/>
</svg>
